<svg width="114" height="37" viewBox="0 0 114 37" fill="none" xmlns="http://www.w3.org/2000/svg">
<g clip-path="url(#clip0_31437_24999)">
<path d="M17.6504 5.97803C11.8519 5.97803 7.15039 10.6795 7.15039 16.478C7.15039 22.2765 11.8519 26.978 17.6504 26.978C23.4489 26.978 28.1504 22.2765 28.1504 16.478C28.1504 10.6795 23.4489 5.97803 17.6504 5.97803ZM14.4489 10.2765C15.4564 9.29146 16.7996 8.77653 18.2101 8.77653C19.6205 8.79892 20.9414 9.35862 21.9265 10.3885L20.0235 12.2467C19.531 11.7541 18.8817 11.4631 18.1877 11.4631C17.4937 11.4631 16.822 11.7094 16.3295 12.2019C15.2996 13.2094 15.2773 14.8661 16.2623 15.8959L18.2773 17.978L16.3743 19.8362L14.3593 17.7541C12.322 15.6497 12.3668 12.2915 14.4489 10.2765ZM20.8295 22.6795C19.7996 23.6646 18.4787 24.1571 17.1579 24.1571C15.7698 24.1571 14.4041 23.6198 13.3743 22.5676L15.2773 20.7094C16.2847 21.7392 17.9414 21.7616 18.9713 20.7541C19.4638 20.2616 19.7549 19.6124 19.7549 18.9183C19.7549 18.2243 19.5086 17.5527 19.0161 17.0601L17.0011 14.978L18.9041 13.1198L20.919 15.2019C21.9041 16.2094 22.419 17.5527 22.419 18.9631C22.419 20.3735 21.8593 21.6944 20.8295 22.6795Z" fill="white"/>
</g>
<path d="M87.5248 29.5606L90.4528 22.9366H89.7328L84.8848 12.1846H88.4128L91.8688 19.9846L94.9888 12.1846H98.4208L90.9568 29.5606H87.5248Z" fill="white"/>
<path d="M73.4307 24.2806V21.6886L79.5267 14.8726H73.5027V12.1846H83.2467V14.8006L77.1027 21.5926H83.3667V24.2806H73.4307Z" fill="white"/>
<path d="M67.8242 24.28V7H71.0642V24.28H67.8242Z" fill="white"/>
<path d="M61.4258 24.28V7H64.6658V24.28H61.4258Z" fill="white"/>
<path d="M52.7965 24.5685C51.5805 24.5685 50.5005 24.3125 49.5565 23.8005C48.6285 23.2725 47.9005 22.5445 47.3725 21.6165C46.8605 20.6725 46.6045 19.5845 46.6045 18.3525C46.6045 17.0885 46.8605 15.9765 47.3725 15.0165C47.9005 14.0405 48.6285 13.2805 49.5565 12.7365C50.4845 12.1765 51.5645 11.8965 52.7965 11.8965C53.9965 11.8965 55.0445 12.1605 55.9405 12.6885C56.8365 13.2165 57.5325 13.9285 58.0285 14.8245C58.5245 15.7205 58.7725 16.7365 58.7725 17.8725C58.7725 18.0325 58.7725 18.2165 58.7725 18.4245C58.7725 18.6165 58.7565 18.8165 58.7245 19.0245H48.9085V17.0565H55.5085C55.4605 16.2725 55.1805 15.6565 54.6685 15.2085C54.1725 14.7605 53.5485 14.5365 52.7965 14.5365C52.2525 14.5365 51.7485 14.6645 51.2845 14.9205C50.8205 15.1605 50.4525 15.5365 50.1805 16.0485C49.9245 16.5605 49.7965 17.2085 49.7965 17.9925V18.6885C49.7965 19.3445 49.9165 19.9205 50.1565 20.4165C50.4125 20.8965 50.7645 21.2725 51.2125 21.5445C51.6605 21.8005 52.1805 21.9285 52.7725 21.9285C53.3645 21.9285 53.8525 21.8005 54.2365 21.5445C54.6365 21.2885 54.9325 20.9605 55.1245 20.5605H58.4365C58.2125 21.3125 57.8365 21.9925 57.3085 22.6005C56.7805 23.2085 56.1325 23.6885 55.3645 24.0405C54.5965 24.3925 53.7405 24.5685 52.7965 24.5685Z" fill="white"/>
<path d="M38.36 24.5684C37.144 24.5684 36.056 24.3604 35.096 23.9444C34.152 23.5284 33.4 22.9204 32.84 22.1204C32.296 21.3204 32.016 20.3524 32 19.2164H35.432C35.448 19.7124 35.576 20.1604 35.816 20.5604C36.056 20.9604 36.384 21.2804 36.8 21.5204C37.232 21.7444 37.744 21.8564 38.336 21.8564C38.848 21.8564 39.288 21.7764 39.656 21.6164C40.04 21.4404 40.336 21.2004 40.544 20.8964C40.752 20.5924 40.856 20.2324 40.856 19.8164C40.856 19.3364 40.736 18.9364 40.496 18.6164C40.272 18.2964 39.952 18.0244 39.536 17.8004C39.136 17.5764 38.664 17.3764 38.12 17.2004C37.592 17.0084 37.032 16.8084 36.44 16.6004C35.112 16.1684 34.096 15.5924 33.392 14.8724C32.704 14.1524 32.36 13.2004 32.36 12.0164C32.36 11.0084 32.6 10.1444 33.08 9.42438C33.576 8.70438 34.256 8.15238 35.12 7.76838C35.984 7.38438 36.968 7.19238 38.072 7.19238C39.208 7.19238 40.2 7.39238 41.048 7.79238C41.912 8.17638 42.592 8.73638 43.088 9.47238C43.6 10.2084 43.864 11.0724 43.88 12.0644H40.424C40.408 11.6964 40.296 11.3524 40.088 11.0324C39.896 10.6964 39.624 10.4324 39.272 10.2404C38.92 10.0324 38.504 9.92838 38.024 9.92838C37.608 9.91238 37.224 9.97638 36.872 10.1204C36.536 10.2644 36.264 10.4804 36.056 10.7684C35.864 11.0404 35.768 11.3844 35.768 11.8004C35.768 12.2004 35.864 12.5364 36.056 12.8084C36.264 13.0804 36.544 13.3204 36.896 13.5284C37.248 13.7204 37.664 13.9044 38.144 14.0804C38.624 14.2404 39.144 14.4084 39.704 14.5844C40.536 14.8724 41.304 15.2164 42.008 15.6164C42.712 16.0004 43.272 16.5044 43.688 17.1284C44.104 17.7524 44.312 18.5764 44.312 19.6004C44.312 20.4804 44.08 21.2964 43.616 22.0484C43.152 22.8004 42.48 23.4084 41.6 23.8724C40.736 24.3364 39.656 24.5684 38.36 24.5684Z" fill="white"/>
<path d="M61.2279 36.4554C61.5662 35.4265 62.3975 34.6476 63.2481 34.0129C64.2534 33.2629 65.3264 32.5801 66.3993 31.9166C68.6225 30.5511 70.9425 29.3299 73.3397 28.2817C73.4847 28.2144 73.6297 28.1471 73.7843 28.099C73.8907 28.0606 74.0357 28.0125 74.142 28.0798C74.2386 28.1375 74.258 28.2625 74.258 28.3587C74.2676 28.5221 74.2483 28.6856 74.2386 28.8395C74.1806 29.5895 74.0163 30.33 73.765 31.0512C73.7167 31.205 73.852 31.3589 73.997 31.3589C74.8573 31.3589 75.5823 30.8781 76.2782 30.4454C77.0322 29.9645 77.8248 29.5607 78.6561 29.2337C78.7818 29.1856 79.0041 29.0414 79.1201 29.1664C79.2168 29.2722 79.2264 29.4357 79.2458 29.5703C79.2844 29.9742 79.3811 30.3684 79.8064 30.5223C80.1351 30.6473 80.5121 30.5511 80.831 30.4357C81.266 30.2723 81.6913 30.0703 82.1263 29.8876C83.1316 29.4549 84.1369 29.0222 85.1519 28.5895C85.0552 28.5798 84.9585 28.5606 84.8619 28.551C84.9682 28.6664 84.9295 28.9549 84.9585 29.1183C85.0165 29.4068 85.2389 29.5895 85.5385 29.6184C85.8382 29.6472 86.1571 29.5895 86.4471 29.503C86.7565 29.4164 87.0561 29.2722 87.3171 29.0895C87.4234 29.0126 87.4718 28.8779 87.4041 28.7625C87.3461 28.6568 87.1818 28.5991 87.0754 28.676C86.6501 28.9645 86.0991 29.1856 85.5772 29.1472C85.4128 29.1376 85.4225 29.0029 85.4128 28.8491C85.3935 28.6183 85.3645 28.4067 85.2099 28.2144C85.1325 28.1279 85.0069 28.1375 84.9199 28.176C84.0402 28.551 83.1606 28.926 82.281 29.3107C81.846 29.4934 81.411 29.6857 80.976 29.8684C80.7054 29.9838 80.3477 30.1665 80.0384 30.0896C79.7098 30.003 79.7774 29.5414 79.7194 29.2818C79.6324 28.8875 79.3328 28.5702 78.8978 28.6471C78.6851 28.6856 78.4725 28.801 78.2695 28.8779C78.0568 28.9645 77.8538 29.0606 77.6412 29.1568C77.2449 29.3395 76.8582 29.5511 76.4812 29.7722C75.7273 30.2146 74.9539 30.8781 74.026 30.8781C74.1033 30.9839 74.1806 31.08 74.258 31.1858C74.49 30.5127 74.6446 29.8107 74.722 29.0991C74.7606 28.7818 74.7993 28.4452 74.7316 28.1375C74.664 27.8202 74.4126 27.599 74.084 27.5798C73.7747 27.5605 73.475 27.7144 73.1947 27.8394C72.866 27.9836 72.547 28.1279 72.2281 28.2721C71.6094 28.5606 70.9908 28.8587 70.3721 29.1664C67.9266 30.3973 65.5487 31.8012 63.3158 33.3879C62.2428 34.1475 61.1892 35.0514 60.7735 36.34C60.6672 36.6285 61.1312 36.7535 61.2279 36.4554Z" fill="white"/>
<defs>
<clipPath id="clip0_31437_24999">
<rect width="21" height="21" fill="white" transform="translate(7.15039 5.97803)"/>
</clipPath>
</defs>
</svg>
