<svg width="123" height="41" viewBox="0 0 123 41" fill="none" xmlns="http://www.w3.org/2000/svg">
<path d="M14.0465 0C6.2895 0 0 6.2895 0 14.0465C0 21.8036 6.2895 28.0931 14.0465 28.0931C21.8036 28.0931 28.0931 21.8036 28.0931 14.0465C28.0931 6.2895 21.8036 0 14.0465 0ZM9.76369 5.7504C11.1114 4.4326 12.9084 3.74375 14.7953 3.74375C16.6821 3.7737 18.4492 4.52245 19.767 5.90015L17.2212 8.38599C16.5623 7.72709 15.6938 7.33774 14.7653 7.33774C13.8369 7.33774 12.9384 7.66719 12.2795 8.32609C10.9018 9.67384 10.8718 11.8901 12.1896 13.2678L14.8851 16.0532L12.3394 18.539L9.64389 15.7537C6.91844 12.9384 6.97834 8.44589 9.76369 5.7504ZM18.2994 22.3427C16.9217 23.6605 15.1547 24.3194 13.3876 24.3194C11.5307 24.3194 9.70379 23.6006 8.32609 22.1929L10.8718 19.7071C12.2196 21.0848 14.4359 21.1147 15.8136 19.767C16.4725 19.1081 16.8618 18.2395 16.8618 17.3111C16.8618 16.3826 16.5324 15.4841 15.8735 14.8252L13.178 12.0399L15.7237 9.55404L18.4192 12.3394C19.737 13.6871 20.4259 15.4841 20.4259 17.371C20.4259 19.2578 19.6771 21.0249 18.2994 22.3427Z" fill="#FFE16A"/>
<path d="M107.519 31.5478L111.436 22.6864H110.473L103.988 8.30273H108.707L113.331 18.7373L117.505 8.30273H122.096L112.111 31.5478H107.519Z" fill="#FFE16A"/>
<path d="M88.666 24.4843V21.0169L96.821 11.8986H88.7623V8.30273H101.798V11.8023L93.5783 20.8884H101.958V24.4843H88.666Z" fill="#FFE16A"/>
<path d="M81.1646 24.4828V1.36621H85.4989V24.4828H81.1646Z" fill="#FFE16A"/>
<path d="M72.605 24.4828V1.36621H76.9393V24.4828H72.605Z" fill="#FFE16A"/>
<path d="M61.0598 24.8692C59.4331 24.8692 57.9883 24.5267 56.7255 23.8418C55.484 23.1354 54.5101 22.1615 53.8038 20.9201C53.1188 19.6572 52.7764 18.2017 52.7764 16.5536C52.7764 14.8627 53.1188 13.3751 53.8038 12.0908C54.5101 10.7852 55.484 9.76846 56.7255 9.04072C57.9669 8.29157 59.4117 7.91699 61.0598 7.91699C62.6651 7.91699 64.0671 8.27016 65.2657 8.9765C66.4644 9.68284 67.3955 10.6353 68.059 11.834C68.7225 13.0326 69.0543 14.3918 69.0543 15.9115C69.0543 16.1255 69.0543 16.3717 69.0543 16.6499C69.0543 16.9068 69.0329 17.1743 68.9901 17.4526H55.8586V14.8199H64.6878C64.6236 13.7711 64.249 12.947 63.5641 12.3477C62.9006 11.7484 62.0658 11.4487 61.0598 11.4487C60.3321 11.4487 59.6578 11.6199 59.0371 11.9624C58.4164 12.2835 57.9241 12.7865 57.5602 13.4714C57.2178 14.1563 57.0465 15.0232 57.0465 16.072V17.0031C57.0465 17.8807 57.207 18.6512 57.5281 19.3148C57.8706 19.9569 58.3415 20.4599 58.9408 20.8238C59.5401 21.1662 60.2357 21.3375 61.0277 21.3375C61.8197 21.3375 62.4725 21.1662 62.9862 20.8238C63.5213 20.4813 63.9173 20.0425 64.1741 19.5074H68.6048C68.3052 20.5134 67.8022 21.4231 67.0958 22.2364C66.3895 23.0498 65.5226 23.6919 64.4952 24.1628C63.4678 24.6337 62.3227 24.8692 61.0598 24.8692Z" fill="#FFE16A"/>
<path d="M41.7484 24.869C40.1217 24.869 38.6662 24.5908 37.382 24.0343C36.1191 23.4778 35.1131 22.6644 34.364 21.5942C33.6362 20.524 33.2616 19.229 33.2402 17.7093H37.8314C37.8529 18.3728 38.0241 18.9722 38.3451 19.5073C38.6662 20.0424 39.105 20.4705 39.6615 20.7915C40.2394 21.0912 40.9244 21.241 41.7163 21.241C42.4013 21.241 42.9899 21.134 43.4822 20.92C43.9959 20.6845 44.3918 20.3634 44.6701 19.9568C44.9484 19.5501 45.0875 19.0685 45.0875 18.512C45.0875 17.8698 44.927 17.3347 44.6059 16.9067C44.3062 16.4786 43.8781 16.1147 43.3216 15.815C42.7865 15.5154 42.1551 15.2478 41.4274 15.0124C40.721 14.7555 39.9719 14.488 39.1799 14.2097C37.4034 13.6318 36.0442 12.8613 35.1024 11.8981C34.182 10.9349 33.7218 9.66132 33.7218 8.0774C33.7218 6.72894 34.0429 5.57311 34.685 4.60992C35.3486 3.64672 36.2582 2.90828 37.4141 2.39458C38.5699 1.88087 39.8863 1.62402 41.3631 1.62402C42.8828 1.62402 44.2099 1.89158 45.3443 2.42668C46.5002 2.94038 47.4098 3.68953 48.0734 4.67413C48.7583 5.65872 49.1115 6.81455 49.1329 8.14162H44.5096C44.4882 7.64932 44.3383 7.18913 44.0601 6.76104C43.8032 6.31155 43.4394 5.95838 42.9685 5.70153C42.4976 5.42328 41.9411 5.28415 41.2989 5.28415C40.7424 5.26274 40.2287 5.34836 39.7578 5.541C39.3083 5.73364 38.9445 6.0226 38.6662 6.40787C38.4094 6.77174 38.2809 7.23194 38.2809 7.78845C38.2809 8.32355 38.4094 8.77304 38.6662 9.13692C38.9445 9.50079 39.319 9.82185 39.7899 10.1001C40.2608 10.357 40.8173 10.6031 41.4595 10.8386C42.1016 11.0526 42.7972 11.2773 43.5464 11.5128C44.6594 11.8981 45.6868 12.3583 46.6286 12.8934C47.5704 13.4071 48.3195 14.0813 48.876 14.9161C49.4325 15.7508 49.7108 16.8531 49.7108 18.223C49.7108 19.4003 49.4004 20.4919 48.7797 21.4979C48.159 22.5039 47.26 23.3172 46.0828 23.938C44.927 24.5587 43.4822 24.869 41.7484 24.869Z" fill="#FFE16A"/>
<path d="M72.3432 40.7712C72.7958 39.3948 73.9078 38.3528 75.0458 37.5037C76.3906 36.5003 77.826 35.587 79.2614 34.6994C82.2355 32.8727 85.339 31.239 88.5459 29.8368C88.7399 29.7467 88.9339 29.6567 89.1408 29.5924C89.283 29.5409 89.477 29.4766 89.6192 29.5666C89.7486 29.6438 89.7744 29.811 89.7744 29.9397C89.7873 30.1584 89.7615 30.3771 89.7486 30.5829C89.671 31.5863 89.4511 32.5768 89.1149 33.5416C89.0503 33.7474 89.2313 33.9533 89.4253 33.9533C90.5761 33.9533 91.546 33.3101 92.477 32.7312C93.4857 32.088 94.546 31.5477 95.6581 31.1103C95.8262 31.046 96.1236 30.853 96.2788 31.0203C96.4081 31.1618 96.421 31.3805 96.4469 31.5606C96.4986 32.1008 96.6279 32.6283 97.1969 32.8341C97.6366 33.0013 98.1409 32.8727 98.5676 32.7183C99.1495 32.4996 99.7185 32.2295 100.3 31.9851C101.645 31.4062 102.99 30.8273 104.348 30.2484C104.219 30.2356 104.089 30.2098 103.96 30.197C104.102 30.3513 104.05 30.7373 104.089 30.9559C104.167 31.3419 104.464 31.5863 104.865 31.6249C105.266 31.6635 105.693 31.5863 106.081 31.4705C106.494 31.3547 106.895 31.1618 107.244 30.9174C107.387 30.8144 107.451 30.6343 107.361 30.48C107.283 30.3385 107.063 30.2613 106.921 30.3642C106.352 30.7501 105.615 31.046 104.917 30.9945C104.697 30.9817 104.71 30.8016 104.697 30.5958C104.671 30.287 104.632 30.004 104.425 29.7467C104.322 29.631 104.154 29.6438 104.038 29.6953C102.861 30.197 101.684 30.6987 100.507 31.2132C99.9254 31.4576 99.3435 31.7149 98.7616 31.9593C98.3995 32.1137 97.9211 32.3581 97.5073 32.2552C97.0676 32.1394 97.1581 31.522 97.0805 31.1746C96.9642 30.6472 96.5633 30.2227 95.9814 30.3256C95.6969 30.3771 95.4124 30.5314 95.1409 30.6343C94.8564 30.7501 94.5848 30.8788 94.3003 31.0074C93.7701 31.2518 93.2529 31.5348 92.7486 31.8307C91.74 32.4224 90.7055 33.3101 89.4641 33.3101C89.5675 33.4516 89.671 33.5802 89.7744 33.7217C90.0848 32.8212 90.2917 31.8822 90.3951 30.9302C90.4468 30.5057 90.4986 30.0555 90.408 29.6438C90.3175 29.2193 89.9813 28.9234 89.5417 28.8977C89.1279 28.872 88.727 29.0778 88.352 29.245C87.9123 29.438 87.4856 29.631 87.0589 29.8239C86.2313 30.2098 85.4037 30.6086 84.5761 31.0203C81.3045 32.6669 78.1234 34.545 75.1363 36.6676C73.7009 37.6838 72.2914 38.8931 71.7354 40.6168C71.5932 41.0028 72.2139 41.17 72.3432 40.7712Z" fill="#FFE16A"/>
</svg>
