<svg width="16" height="16" viewBox="0 0 16 16" fill="none" xmlns="http://www.w3.org/2000/svg">
<g clip-path="url(#clip0_39577_17243)">
<path d="M13.3335 6.00016C12.8034 3.3432 10.342 1.3335 7.38633 1.3335C4.04382 1.3335 1.3335 3.90364 1.3335 7.07353C1.3335 8.59655 1.95896 9.98042 2.9792 11.0074C3.20382 11.2335 3.3538 11.5424 3.29327 11.8604C3.19338 12.3802 2.967 12.8651 2.63553 13.2693C3.50765 13.4301 4.41447 13.2853 5.19217 12.8753C5.46709 12.7304 5.60454 12.6579 5.70154 12.6433C5.76944 12.633 5.85789 12.6426 6.00016 12.667" stroke="#495057" stroke-linecap="round" stroke-linejoin="round"/>
<path d="M7.3335 10.8413C7.3335 12.7784 8.97535 14.3491 11.0002 14.3491C11.2382 14.3494 11.4756 14.3274 11.7095 14.2835C11.8778 14.2519 11.962 14.236 12.0208 14.245C12.0795 14.254 12.1628 14.2983 12.3293 14.3868C12.8004 14.6374 13.3498 14.7259 13.8781 14.6276C13.6773 14.3806 13.5402 14.0843 13.4796 13.7666C13.443 13.5723 13.5338 13.3835 13.6699 13.2453C14.2879 12.6177 14.6668 11.772 14.6668 10.8413C14.6668 8.90414 13.025 7.3335 11.0002 7.3335C8.97535 7.3335 7.3335 8.90414 7.3335 10.8413Z" stroke="#495057" stroke-linejoin="round"/>
</g>
<defs>
<clipPath id="clip0_39577_17243">
<rect width="16" height="16" rx="5.33333" fill="white"/>
</clipPath>
</defs>
</svg>
