<svg width="32" height="32" viewBox="0 0 32 32" fill="none" xmlns="http://www.w3.org/2000/svg">
<path d="M4 17.3891L4 10.668L28 10.668V17.3891C28 22.3917 28 24.893 26.4379 26.4472C24.8758 28.0013 22.3617 28.0013 17.3333 28.0013H14.6667C9.63835 28.0013 7.12419 28.0013 5.5621 26.4472C4 24.893 4 22.3917 4 17.3891Z" fill="#FFC107"/>
<path d="M26.932 4L5.07064 4C4.06992 4 3.56957 4 3.22313 4.23634C3.05154 4.3534 2.90974 4.50812 2.80886 4.68836C2.60517 5.05227 2.65496 5.5439 2.75454 6.52716C2.92074 8.16832 3.00384 8.9889 3.43894 9.57558C3.65576 9.86793 3.93065 10.1136 4.24682 10.2975C4.88129 10.6667 5.71644 10.6667 7.38674 10.6667L24.6159 10.6667C26.2862 10.6667 27.1213 10.6667 27.7558 10.2975C28.072 10.1136 28.3468 9.86793 28.5637 9.57558C28.9988 8.9889 29.0819 8.16832 29.2481 6.52716C29.3476 5.5439 29.3974 5.05227 29.1937 4.68836C29.0929 4.50812 28.9511 4.3534 28.7795 4.23634C28.433 4 27.9327 4 26.932 4Z" fill="white"/>
<path d="M26.932 4L5.07064 4C4.06992 4 3.56957 4 3.22313 4.23634C3.05154 4.3534 2.90974 4.50812 2.80886 4.68836C2.60517 5.05227 2.65496 5.5439 2.75454 6.52716C2.92074 8.16832 3.00384 8.9889 3.43894 9.57558C3.65576 9.86793 3.93065 10.1136 4.24682 10.2975C4.88129 10.6667 5.71644 10.6667 7.38674 10.6667L24.6159 10.6667C26.2862 10.6667 27.1213 10.6667 27.7558 10.2975C28.072 10.1136 28.3468 9.86793 28.5637 9.57558C28.9988 8.9889 29.0819 8.16832 29.2481 6.52716C29.3476 5.5439 29.3974 5.05227 29.1937 4.68836C29.0929 4.50812 28.9511 4.3534 28.7795 4.23634C28.433 4 27.9327 4 26.932 4Z" stroke="#212529" stroke-width="1.5" stroke-linecap="round" stroke-linejoin="round"/>
<path d="M4.75 10.668C4.75 10.2538 4.41421 9.91797 4 9.91797C3.58579 9.91797 3.25 10.2538 3.25 10.668H4H4.75ZM27.25 17.3891C27.25 17.8033 27.5858 18.1391 28 18.1391C28.4142 18.1391 28.75 17.8033 28.75 17.3891H28H27.25ZM28.75 10.668C28.75 10.2538 28.4142 9.91797 28 9.91797C27.5858 9.91797 27.25 10.2538 27.25 10.668H28H28.75ZM5.5621 26.4472L6.09107 25.9155L6.09107 25.9155L5.5621 26.4472ZM20.7149 19.6279L21.2005 20.1995V20.1995L20.7149 19.6279ZM22.4264 19.2854C22.7674 19.0502 22.8531 18.5831 22.618 18.2422C22.3828 17.9012 21.9157 17.8154 21.5748 18.0506L22.0006 18.668L22.4264 19.2854ZM20.7149 23.0414L21.2005 22.4698V22.4698L20.7149 23.0414ZM21.5748 24.6187C21.9157 24.8539 22.3828 24.7681 22.618 24.4271C22.8531 24.0861 22.7674 23.6191 22.4264 23.3839L22.0006 24.0013L21.5748 24.6187ZM4 10.668H3.25L3.25 17.3891H4H4.75L4.75 10.668H4ZM28 17.3891H28.75V10.668H28H27.25V17.3891H28ZM4 17.3891H3.25C3.25 19.8691 3.24839 21.8049 3.45202 23.3118C3.65861 24.8406 4.08882 26.0394 5.03313 26.9789L5.5621 26.4472L6.09107 25.9155C5.47328 25.3008 5.12244 24.4719 4.93851 23.1109C4.75161 21.7278 4.75 19.9117 4.75 17.3891H4ZM14.6667 28.0013V27.2513C12.1314 27.2513 10.305 27.2497 8.91399 27.0637C7.54411 26.8804 6.70939 26.5307 6.09107 25.9155L5.5621 26.4472L5.03313 26.9789C5.9769 27.9178 7.18031 28.3451 8.71512 28.5504C10.2287 28.7529 12.1736 28.7513 14.6667 28.7513V28.0013ZM19.3339 21.3346L19.3339 22.0846L24.0006 22.0846V21.3346V20.5846L19.3339 20.5846V21.3346ZM27.3339 24.668H26.5839C26.5839 26.0947 25.4273 27.2513 24.0006 27.2513V28.0013V28.7513C26.2557 28.7513 28.0839 26.9231 28.0839 24.668H27.3339ZM24.0006 21.3346V22.0846C25.4273 22.0846 26.5839 23.2412 26.5839 24.668H27.3339H28.0839C28.0839 22.4128 26.2557 20.5846 24.0006 20.5846V21.3346ZM20.7149 19.6279L20.2293 19.0563C19.7869 19.4322 19.3906 19.7665 19.1155 20.0799C18.823 20.4131 18.5839 20.8141 18.5839 21.3346H19.3339H20.0839C20.0839 21.3218 20.075 21.2606 20.2428 21.0693C20.4281 20.8583 20.7223 20.6058 21.2005 20.1995L20.7149 19.6279ZM22.0006 18.668C21.5748 18.0506 21.5747 18.0506 21.5747 18.0506C21.5747 18.0506 21.5747 18.0506 21.5746 18.0506C21.5746 18.0507 21.5745 18.0507 21.5745 18.0508C21.5743 18.0509 21.5741 18.051 21.5739 18.0512C21.5734 18.0515 21.5727 18.052 21.5718 18.0526C21.57 18.0539 21.5674 18.0556 21.5641 18.0579C21.5575 18.0625 21.548 18.0691 21.5358 18.0776C21.5113 18.0946 21.4762 18.1192 21.4327 18.1497C21.3458 18.2108 21.2251 18.2964 21.0895 18.3946C20.8234 18.5874 20.4819 18.8417 20.2293 19.0563L20.7149 19.6279L21.2005 20.1995C21.4059 20.025 21.7072 19.7994 21.9695 19.6094C22.0981 19.5163 22.2129 19.4348 22.2955 19.3767C22.3368 19.3477 22.3698 19.3246 22.3925 19.3089C22.4038 19.301 22.4124 19.295 22.4182 19.291C22.4211 19.289 22.4232 19.2876 22.4246 19.2866C22.4253 19.2861 22.4258 19.2858 22.4261 19.2856C22.4262 19.2855 22.4263 19.2854 22.4264 19.2854C22.4264 19.2854 22.4264 19.2853 22.4264 19.2853C22.4264 19.2853 22.4264 19.2853 22.4264 19.2853C22.4264 19.2854 22.4264 19.2854 22.0006 18.668ZM20.7149 23.0414L21.2005 22.4698C20.7223 22.0635 20.4281 21.811 20.2428 21.5999C20.075 21.4087 20.0839 21.3475 20.0839 21.3346H19.3339H18.5839C18.5839 21.8551 18.823 22.2561 19.1155 22.5894C19.3906 22.9028 19.7869 23.2371 20.2293 23.6129L20.7149 23.0414ZM22.0006 24.0013C22.4264 23.3839 22.4264 23.3839 22.4264 23.3839C22.4264 23.3839 22.4264 23.3839 22.4264 23.3839C22.4264 23.3839 22.4264 23.3839 22.4264 23.3839C22.4263 23.3839 22.4262 23.3838 22.4261 23.3837C22.4258 23.3835 22.4253 23.3831 22.4246 23.3827C22.4232 23.3817 22.4211 23.3802 22.4182 23.3782C22.4124 23.3742 22.4038 23.3682 22.3925 23.3604C22.3698 23.3446 22.3368 23.3215 22.2955 23.2925C22.2129 23.2344 22.0981 23.153 21.9694 23.0598C21.7072 22.8699 21.4059 22.6443 21.2005 22.4698L20.7149 23.0414L20.2293 23.6129C20.4819 23.8276 20.8234 24.0819 21.0895 24.2746C21.2251 24.3728 21.3458 24.4584 21.4327 24.5195C21.4762 24.5501 21.5113 24.5747 21.5358 24.5917C21.548 24.6002 21.5575 24.6068 21.5641 24.6114C21.5674 24.6136 21.57 24.6154 21.5718 24.6166C21.5727 24.6173 21.5734 24.6177 21.5739 24.6181C21.5741 24.6183 21.5743 24.6184 21.5745 24.6185C21.5745 24.6185 21.5746 24.6186 21.5746 24.6186C21.5747 24.6186 21.5747 24.6187 21.5747 24.6187C21.5747 24.6187 21.5748 24.6187 22.0006 24.0013ZM14.6667 28.0013V28.7513H24.0006V28.0013V27.2513H14.6667V28.0013Z" fill="#212529"/>
<path d="M13.3359 14.668L18.6693 14.668" stroke="#212529" stroke-width="1.5" stroke-linecap="round"/>
</svg>
