<svg width="32" height="32" viewBox="0 0 32 32" fill="none" xmlns="http://www.w3.org/2000/svg">
<path d="M2.66797 11.9987L2.66797 17.332C2.66797 20.4747 2.66797 22.0461 3.64428 23.0224C4.29344 23.6715 5.20567 23.8891 6.66797 23.962L12.0013 23.9987H20.0013L25.3346 23.962C26.7969 23.8891 27.7092 23.6715 28.3583 23.0224C29.3346 22.0461 29.3346 20.4747 29.3346 17.332V14.6654L23.068 14.6654C22.0753 14.6654 21.5789 14.6654 21.1773 14.5348C20.3654 14.2711 19.7289 13.6346 19.4652 12.8227C19.3346 12.4211 19.3346 11.9247 19.3346 10.932C19.3346 9.44301 19.3346 8.69849 19.1389 8.09596C18.7432 6.87821 17.7885 5.92348 16.5707 5.52781C15.9682 5.33203 15.2237 5.33203 13.7346 5.33203L9.33463 5.33203C6.19194 5.33203 4.62059 5.33203 3.64428 6.30834C2.66797 7.28465 2.66797 8.856 2.66797 11.9987Z" fill="#FFC107"/>
<circle cx="22.6667" cy="23.9987" r="2.66667" fill="white"/>
<circle cx="22.6667" cy="23.9987" r="2.66667" stroke="#212529" stroke-width="1.5"/>
<circle cx="9.33464" cy="23.9987" r="2.66667" fill="white"/>
<circle cx="9.33464" cy="23.9987" r="2.66667" stroke="#212529" stroke-width="1.5"/>
<path d="M29.3342 14.6667L23.0676 14.6667C22.0749 14.6667 21.5785 14.6667 21.1769 14.5362C20.365 14.2724 19.7285 13.6359 19.4647 12.824C19.3342 12.4224 19.3342 11.926 19.3342 10.9333C19.3342 9.44431 19.3342 8.6998 19.1385 8.09727C19.1279 8.06465 19.1169 8.03223 19.1055 8H19.3342H21.7625C23.703 8 24.6732 8 25.4628 8.47161C26.2524 8.94323 26.7124 9.79748 27.6323 11.506L29.3342 14.6667Z" fill="white"/>
<path d="M6.66797 23.962C5.20567 23.8891 4.29344 23.6715 3.64428 23.0224C2.66797 22.0461 2.66797 20.4747 2.66797 17.332L2.66797 11.9987C2.66797 8.856 2.66797 7.28465 3.64428 6.30834C4.62059 5.33203 6.19194 5.33203 9.33464 5.33203L13.7346 5.33203C15.2237 5.33203 15.9682 5.33203 16.5707 5.52781C17.7885 5.92348 18.7432 6.87821 19.1389 8.09596C19.3346 8.69849 19.3346 9.44301 19.3346 10.932C19.3346 11.9247 19.3346 12.4211 19.4652 12.8227C19.7289 13.6346 20.3654 14.2711 21.1773 14.5348C21.5789 14.6654 22.0753 14.6654 23.068 14.6654L29.3346 14.6654V17.332C29.3346 20.4747 29.3346 22.0461 28.3583 23.0224C27.7092 23.6715 26.7969 23.8891 25.3346 23.962M12.0013 23.9987H20.0013" stroke="#212529" stroke-width="1.5" stroke-linecap="round" stroke-linejoin="round"/>
<path d="M19.3359 8H21.7642C23.7047 8 24.6749 8 25.4645 8.47161C26.2541 8.94323 26.7141 9.79748 27.634 11.506L29.3359 14.6667" stroke="#212529" stroke-width="1.5" stroke-linecap="round" stroke-linejoin="round"/>
<path d="M13.3359 12V14.6667" stroke="#212529" stroke-width="1.5" stroke-linecap="round"/>
<path d="M8 12L8 14.6667" stroke="#212529" stroke-width="1.5" stroke-linecap="round"/>
</svg>
