<svg width="20" height="20" viewBox="0 0 20 20" fill="none" xmlns="http://www.w3.org/2000/svg">
<g clip-path="url(#clip0_39366_84632)">
<path d="M12.5 14.168C11.8337 14.6866 10.9585 15.0013 10 15.0013C9.04146 15.0013 8.16627 14.6866 7.5 14.168" stroke="#212529" stroke-width="1.5" stroke-linecap="round"/>
<path d="M1.95933 11.0125C1.66515 9.09817 1.51805 8.141 1.87997 7.29245C2.24189 6.4439 3.04486 5.86333 4.65079 4.70219L5.85066 3.83464C7.84841 2.39019 8.84729 1.66797 9.99984 1.66797C11.1524 1.66797 12.1513 2.39019 14.149 3.83464L15.3489 4.70219C16.9548 5.86333 17.7578 6.4439 18.1197 7.29245C18.4816 8.141 18.3345 9.09817 18.0403 11.0125L17.7895 12.645C17.3724 15.3587 17.1639 16.7156 16.1907 17.5251C15.2174 18.3346 13.7946 18.3346 10.9488 18.3346H9.05082C6.20511 18.3346 4.78226 18.3346 3.809 17.5251C2.83575 16.7156 2.62723 15.3587 2.21019 12.645L1.95933 11.0125Z" stroke="#212529" stroke-width="1.5" stroke-linejoin="round"/>
</g>
<defs>
<clipPath id="clip0_39366_84632">
<rect width="20" height="20" fill="white"/>
</clipPath>
</defs>
</svg>
