<svg width="217" height="145" viewBox="0 0 217 145" fill="none" xmlns="http://www.w3.org/2000/svg">
<g clip-path="url(#clip0_29403_105761)">
<path d="M53.7156 89.6674C54.3389 105.52 88.1075 134.695 124.915 119.256C142.034 112.075 139.681 103.052 151.96 89.7128C159.279 81.7623 170.254 75.2382 172.469 64.4744C174.382 55.1835 171.781 45.6353 166.405 39.7715C154.316 26.584 131.684 18.9045 112.378 43.2916C93.072 67.6786 52.1125 48.7827 53.7156 89.6674Z" fill="url(#paint0_linear_29403_105761)"/>
<path d="M47.3827 46.9188C50.3358 52.2012 56.8032 52.9269 67.1642 51.9232C74.9564 51.1668 82.0622 50.5815 89.8552 46.3229C95.3096 43.3443 99.6272 39.3145 102.778 35.4005C106.193 31.1602 110.96 26.3211 108.623 21.5134C105.412 14.9091 86.8427 9.34689 68.8112 18.443C49.0035 28.4378 44.494 41.7561 47.3827 46.9188Z" fill="url(#paint1_linear_29403_105761)"/>
<path d="M23.3566 62.7654C31.0119 66.5714 41.1723 61.6774 41.1723 61.6774C41.1723 61.6774 38.9143 50.6146 31.255 46.8137C23.5997 43.0074 13.4434 47.8961 13.4434 47.8961C13.4434 47.8961 15.7014 58.9591 23.3566 62.7654Z" fill="url(#paint2_linear_29403_105761)"/>
<path d="M194.884 74.622C190.725 77.1205 184.758 74.8107 184.758 74.8107C184.758 74.8107 185.538 68.451 189.7 65.9553C193.859 63.457 199.824 65.7637 199.824 65.7637C199.824 65.7637 199.043 72.1234 194.884 74.622Z" fill="url(#paint3_linear_29403_105761)"/>
<path d="M42.3396 117.155C43.6382 117.155 44.6909 116.1 44.6909 114.798C44.6909 113.497 43.6382 112.441 42.3396 112.441C41.041 112.441 39.9883 113.497 39.9883 114.798C39.9883 116.1 41.041 117.155 42.3396 117.155Z" fill="#DFE3E8"/>
<path d="M195.472 100.738C197.348 100.738 198.869 99.2138 198.869 97.3338C198.869 95.4538 197.348 93.9297 195.472 93.9297C193.597 93.9297 192.076 95.4538 192.076 97.3338C192.076 99.2138 193.597 100.738 195.472 100.738Z" fill="#DFE3E8"/>
<path d="M30.366 94.0915C31.7935 94.0915 32.9507 92.9316 32.9507 91.5008C32.9507 90.07 31.7935 88.9102 30.366 88.9102C28.9385 88.9102 27.7812 90.07 27.7812 91.5008C27.7812 92.9316 28.9385 94.0915 30.366 94.0915Z" fill="#DFE3E8"/>
<path d="M44.8367 25.7374C46.4239 25.7374 47.7105 24.4478 47.7105 22.857C47.7105 21.2662 46.4239 19.9766 44.8367 19.9766C43.2495 19.9766 41.9629 21.2662 41.9629 22.857C41.9629 24.4478 43.2495 25.7374 44.8367 25.7374Z" fill="#DFE3E8"/>
<path d="M202.194 41.0475C202.194 42.476 203.35 43.6341 204.775 43.6341C206.2 43.6341 207.355 42.476 207.355 41.0475C207.355 39.619 206.2 38.4609 204.775 38.4609C203.35 38.4609 202.194 39.619 202.194 41.0475Z" fill="#DFE3E8"/>
<path d="M129.126 19.5809C131.022 19.5809 132.559 18.0404 132.559 16.1401C132.559 14.2397 131.022 12.6992 129.126 12.6992C127.23 12.6992 125.693 14.2397 125.693 16.1401C125.693 18.0404 127.23 19.5809 129.126 19.5809Z" fill="#DFE3E8"/>
<path d="M39.7737 79.2662C41.2322 79.2662 42.4146 78.3182 42.4146 77.1487C42.4146 75.9793 41.2322 75.0312 39.7737 75.0312C38.3152 75.0312 37.1328 75.9793 37.1328 77.1487C37.1328 78.3182 38.3152 79.2662 39.7737 79.2662Z" fill="#DFE3E8"/>
<path d="M175.934 25.6953H175.896C175.673 28.859 173.326 28.9075 173.326 28.9075C173.326 28.9075 175.914 28.9583 175.914 32.6137C175.914 28.9583 178.503 28.9075 178.503 28.9075C178.503 28.9075 176.157 28.859 175.934 25.6953ZM179.866 108.506H179.83C179.616 111.66 177.363 111.708 177.363 111.708C177.363 111.708 179.848 111.759 179.848 115.403C179.848 111.759 182.333 111.708 182.333 111.708C182.333 111.708 180.08 111.66 179.866 108.506Z" fill="#DFE3E8"/>
<path d="M108.368 132.064C141.12 132.064 167.67 105.453 167.67 72.6259C167.67 39.799 141.12 13.1875 108.368 13.1875C75.6167 13.1875 49.0664 39.799 49.0664 72.6259C49.0664 105.453 75.6167 132.064 108.368 132.064Z" fill="#FFC107"/>
<mask id="mask0_29403_105761" style="mask-type:alpha" maskUnits="userSpaceOnUse" x="49" y="13" width="119" height="120">
<path d="M108.368 132.064C141.12 132.064 167.67 105.453 167.67 72.6259C167.67 39.799 141.12 13.1875 108.368 13.1875C75.6167 13.1875 49.0664 39.799 49.0664 72.6259C49.0664 105.453 75.6167 132.064 108.368 132.064Z" fill="#666AF6"/>
</mask>
<g mask="url(#mask0_29403_105761)">
<path d="M140.085 45.9141H76.914C71.5875 45.9141 67.2695 50.242 67.2695 55.5807V123.731C67.2695 129.069 71.5875 133.397 76.914 133.397H140.085C145.412 133.397 149.73 129.069 149.73 123.731V55.5807C149.73 50.242 145.412 45.9141 140.085 45.9141Z" fill="white"/>
<path fill-rule="evenodd" clip-rule="evenodd" d="M86.9473 102.631C86.9473 101.573 87.802 100.715 88.8564 100.715H128.119C129.173 100.715 130.028 101.573 130.028 102.631C130.028 103.689 129.173 104.547 128.119 104.547H88.8564C87.802 104.547 86.9473 103.689 86.9473 102.631ZM93.33 113.34C93.33 112.282 94.1847 111.424 95.239 111.424H121.761C122.816 111.424 123.67 112.282 123.67 113.34C123.67 114.398 122.816 115.256 121.761 115.256H95.239C94.1847 115.256 93.33 114.398 93.33 113.34Z" fill="#DFE3E8"/>
<path d="M93 75.9961C93 84.2804 99.7157 90.9961 108 90.9961C109.146 90.9961 110.261 90.8677 111.333 90.6244V61.3678C110.261 61.1245 109.146 60.9961 108 60.9961C99.7157 60.9961 93 67.7118 93 75.9961Z" fill="#FFC107"/>
<path d="M111.333 61.1545C110.572 61.0501 109.793 60.9961 109 60.9961C100.163 60.9961 93 67.7118 93 75.9961C93 84.2804 100.163 90.9961 109 90.9961C109.793 90.9961 110.572 90.9421 111.333 90.8377" stroke="#212B36" stroke-linecap="round"/>
<path d="M123.001 75.9948L106.334 75.9948M123.001 75.9948C123.001 74.8277 119.677 72.6473 118.834 71.8281M123.001 75.9948C123.001 77.1618 119.677 79.3422 118.834 80.1615" stroke="#212B36" stroke-linecap="round" stroke-linejoin="round"/>
</g>
</g>
<defs>
<linearGradient id="paint0_linear_29403_105761" x1="99.3411" y1="180.747" x2="132.663" y2="-84.8785" gradientUnits="userSpaceOnUse">
<stop stop-color="white"/>
<stop offset="1" stop-color="#EEEEEE"/>
</linearGradient>
<linearGradient id="paint1_linear_29403_105761" x1="67.2761" y1="81.1531" x2="93.7122" y2="-37.3668" gradientUnits="userSpaceOnUse">
<stop stop-color="white"/>
<stop offset="1" stop-color="#EEEEEE"/>
</linearGradient>
<linearGradient id="paint2_linear_29403_105761" x1="52.7536" y1="74.6377" x2="-10.4989" y2="24.7196" gradientUnits="userSpaceOnUse">
<stop stop-color="white"/>
<stop offset="1" stop-color="#EEEEEE"/>
</linearGradient>
<linearGradient id="paint3_linear_29403_105761" x1="178.789" y1="82.6646" x2="212.327" y2="51.575" gradientUnits="userSpaceOnUse">
<stop stop-color="white"/>
<stop offset="1" stop-color="#EEEEEE"/>
</linearGradient>
<clipPath id="clip0_29403_105761">
<rect width="217" height="145" fill="white"/>
</clipPath>
</defs>
</svg>
