<svg width="32" height="32" viewBox="0 0 32 32" fill="none" xmlns="http://www.w3.org/2000/svg">
<path d="M15.9998 29.3346C23.3636 29.3346 29.3332 23.3651 29.3332 16.0013C29.3332 11.2013 27.0698 8.07538 25.9381 7.11241C23.4967 4.38464 19.9487 2.66797 15.9998 2.66797C8.63604 2.66797 2.6665 8.6375 2.6665 16.0013C2.6665 23.3651 8.63604 29.3346 15.9998 29.3346Z" fill="#FFC107"/>
<path d="M16.6342 10.668C16.6342 10.2538 16.2984 9.91797 15.8842 9.91797C15.47 9.91797 15.1342 10.2538 15.1342 10.668L15.8842 10.668L16.6342 10.668ZM15.1342 21.3346C15.1342 21.7488 15.47 22.0846 15.8842 22.0846C16.2984 22.0846 16.6342 21.7488 16.6342 21.3346H15.8842H15.1342ZM17.486 13.369C17.7154 13.7139 18.1809 13.8076 18.5258 13.5782C18.8707 13.3488 18.9644 12.8832 18.735 12.5383L18.1105 12.9537L17.486 13.369ZM14.1991 18.7701C13.9096 18.4739 13.4347 18.4685 13.1386 18.7581C12.8424 19.0477 12.837 19.5225 13.1266 19.8187L13.6629 19.2944L14.1991 18.7701ZM15.8842 15.8479V15.0979C15.0182 15.0979 14.5817 14.9397 14.3707 14.7773C14.204 14.6489 14.0835 14.4444 14.0835 14.0043H13.3335H12.5835C12.5835 14.7521 12.8109 15.4694 13.4557 15.9658C14.0563 16.4282 14.8952 16.5979 15.8842 16.5979V15.8479ZM13.3335 14.0043H14.0835C14.0835 13.3453 14.7648 12.6034 15.8842 12.6034V11.8534V11.1034C14.1862 11.1034 12.5835 12.2874 12.5835 14.0043H13.3335ZM18.6668 17.9988H17.9168C17.9168 18.5305 17.7185 18.8322 17.4274 19.032C17.0957 19.2597 16.5704 19.3997 15.8842 19.3997V20.1497V20.8997C16.7348 20.8997 17.6008 20.7324 18.2763 20.2687C18.9923 19.7772 19.4168 19.0034 19.4168 17.9988L18.6668 17.9988ZM15.8842 15.8479V16.5979C16.7575 16.5979 17.2542 16.7482 17.523 16.9485C17.7428 17.1124 17.9168 17.3909 17.9168 17.9988H18.6668L19.4168 17.9988C19.4168 17.0704 19.1271 16.2734 18.4194 15.7459C17.7606 15.2549 16.866 15.0979 15.8842 15.0979V15.8479ZM15.8842 11.8534L16.6342 11.8534L16.6342 10.668L15.8842 10.668L15.1342 10.668L15.1342 11.8534L15.8842 11.8534ZM15.8842 20.1497H15.1342V21.3346H15.8842H16.6342V20.1497H15.8842ZM15.8842 11.8534V12.6034C16.6179 12.6034 17.2034 12.9442 17.486 13.369L18.1105 12.9537L18.735 12.5383C18.1442 11.65 17.063 11.1034 15.8842 11.1034V11.8534ZM15.8842 20.1497V19.3997C15.1524 19.3997 14.5487 19.1276 14.1991 18.7701L13.6629 19.2944L13.1266 19.8187C13.793 20.5003 14.8012 20.8997 15.8842 20.8997V20.1497Z" fill="#212529"/>
<path d="M6.10617 11.4773L2.66683 11.2735C5.13216 4.94114 12.2103 1.33444 19.1114 3.12766C26.4616 5.03759 30.8275 12.35 28.8629 19.4604C27.2379 25.3414 21.7912 29.2423 15.7974 29.3346" stroke="#212529" stroke-width="1.5" stroke-linecap="round" stroke-linejoin="round"/>
<path d="M15.9998 29.3346C8.6665 29.3346 2.6665 22.668 2.6665 14.668" stroke="#212529" stroke-width="1.5" stroke-linecap="round" stroke-linejoin="round" stroke-dasharray="0.5 3"/>
</svg>
