<svg width="251" height="173" viewBox="0 0 251 173" fill="none" xmlns="http://www.w3.org/2000/svg">
<path d="M14.4167 64.2214C25.5496 69.7376 40.3256 62.6445 40.3256 62.6445C40.3256 62.6445 37.0419 46.6109 25.903 41.1021C14.7701 35.5856 0 42.6709 0 42.6709C0 42.6709 3.28377 58.7049 14.4167 64.2214Z" fill="#CAF8E4"/>
<path d="M240.509 96.6748C231.675 101.676 219 97.0526 219 97.0526C219 97.0526 220.657 84.3223 229.497 79.3267C238.331 74.3257 251 78.9431 251 78.9431C251 78.9431 249.343 91.6733 240.509 96.6748Z" fill="#CAF8E4"/>
<path d="M64.1793 10.3494C66.4875 10.3494 68.3586 8.48031 68.3586 6.17469C68.3586 3.86907 66.4875 2 64.1793 2C61.8711 2 60 3.86907 60 6.17469C60 8.48031 61.8711 10.3494 64.1793 10.3494Z" fill="#5ED9BA"/>
<path d="M230 42.7488C230 44.8192 231.68 46.4976 233.753 46.4976C235.826 46.4976 237.506 44.8192 237.506 42.7488C237.506 40.6784 235.826 39 233.753 39C231.68 39 230 40.6784 230 42.7488Z" fill="#CAF8E4"/>
<path d="M153.734 9.97387C156.491 9.97387 158.726 7.74114 158.726 4.98693C158.726 2.23273 156.491 0 153.734 0C150.976 0 148.741 2.23273 148.741 4.98693C148.741 7.74114 150.976 9.97387 153.734 9.97387Z" fill="#CAF8E4"/>
<path d="M23.7908 96.4738C25.9119 96.4738 27.6314 95.0998 27.6314 93.4049C27.6314 91.7099 25.9119 90.3359 23.7908 90.3359C21.6697 90.3359 19.9502 91.7099 19.9502 93.4049C19.9502 95.0998 21.6697 96.4738 23.7908 96.4738Z" fill="#CAF8E4"/>
<path d="M221.806 18.8359H221.751C221.427 23.4211 218.014 23.4915 218.014 23.4915C218.014 23.4915 221.778 23.5651 221.778 28.863C221.778 23.5651 225.542 23.4915 225.542 23.4915C225.542 23.4915 222.13 23.4211 221.806 18.8359ZM227.525 138.855H227.472C227.161 143.427 223.884 143.497 223.884 143.497C223.884 143.497 227.498 143.57 227.498 148.852C227.498 143.57 231.112 143.497 231.112 143.497C231.112 143.497 227.836 143.427 227.525 138.855Z" fill="#5ED9BA"/>
<path d="M120.545 172.999C168.175 172.999 206.786 134.43 206.786 86.853C206.786 39.2759 168.175 0.707031 120.545 0.707031C72.9152 0.707031 34.3037 39.2759 34.3037 86.853C34.3037 134.43 72.9152 172.999 120.545 172.999Z" fill="#088178"/>
<mask id="mask0_29394_109674" style="mask-type:alpha" maskUnits="userSpaceOnUse" x="34" y="0" width="173" height="173">
<path d="M120.545 172.999C168.175 172.999 206.786 134.43 206.786 86.853C206.786 39.2759 168.175 0.707031 120.545 0.707031C72.9152 0.707031 34.3037 39.2759 34.3037 86.853C34.3037 134.43 72.9152 172.999 120.545 172.999Z" fill="#088178"/>
</mask>
<g mask="url(#mask0_29394_109674)">
<path d="M166.67 48.1406H74.8021C67.0559 48.1406 60.7764 54.4132 60.7764 62.1508V160.923C60.7764 168.66 67.0559 174.933 74.8021 174.933H166.67C174.417 174.933 180.696 168.66 180.696 160.923V62.1508C180.696 54.4132 174.417 48.1406 166.67 48.1406Z" fill="white"/>
<path fill-rule="evenodd" clip-rule="evenodd" d="M165.845 29.5886L165.726 29.5817C165.229 29.5368 164.73 29.4825 164.377 29.4785C159.564 29.4297 154.936 28.094 151.039 26.7634C141.716 23.5759 131.996 20.8042 122.156 18.1868C119.4 17.4532 116.414 16.9933 113.544 16.4067C112.694 16.2338 111.84 16.0728 110.985 15.9096C110.61 15.8417 109.945 15.5478 109.55 15.4577C109.268 15.3901 109.015 15.397 108.855 15.4197C108.45 15.4837 108.167 15.6487 107.972 15.8607C107.842 15.9973 107.678 16.2277 107.788 16.539C108.965 19.8066 112.93 23.2762 117.836 26.6445C125.042 31.592 134.258 36.346 139.172 40.0077C140.463 40.9713 143.727 42.5048 146.18 44.1031C147.27 44.8098 148.217 45.5127 148.667 46.1838C147.864 45.9633 146.929 45.6132 146.331 45.4919C143.746 44.9692 141.406 44.1333 138.92 43.4926C131.358 41.542 105.438 39.3722 96.7167 39.1408C89.6633 38.9517 48.2772 40.6938 23.854 47.904C23.3293 48.059 22.967 48.4574 23.0447 48.7957C23.1223 49.134 23.612 49.2816 24.1329 49.1279C48.2634 42.0042 89.1471 40.2984 96.1159 40.4847C104.74 40.7147 130.375 42.8444 137.845 44.7732C140.365 45.4239 142.739 46.2639 145.356 46.7943C146.3 46.9853 148.051 47.6652 148.979 47.7135C149.503 47.741 149.933 47.6131 150.217 47.4528C150.564 47.2553 150.901 46.9422 150.862 46.4456C150.794 45.6334 150.027 44.7213 148.855 43.8254C146.413 41.9621 142.231 40.0699 140.729 38.9513C135.809 35.2838 126.58 30.5181 119.359 25.5626C115.337 22.7995 111.932 19.9902 110.324 17.2739C111.075 17.4145 111.819 17.56 112.565 17.7101C115.402 18.2868 118.348 18.7393 121.072 19.4629C130.871 22.0729 140.558 24.8322 149.843 28.0063C153.921 29.3996 158.783 30.7717 163.814 30.8252C164.524 30.8318 165.847 31.0287 166.524 30.9299C166.959 30.8664 167.292 30.7132 167.514 30.5423C167.79 30.3345 168.009 30.0539 167.931 29.6786C167.62 28.1406 166.069 25.8968 163.896 23.4021C158.957 17.7378 150.837 10.6991 147.734 7.6838C145.65 5.6584 143.408 3.70823 141.44 1.61698C141.342 1.51301 139.762 -0.628836 139.012 -1.64992C140.144 -1.77928 141.727 -1.7899 143.534 -1.75553C149.883 -1.63044 158.767 -0.711875 161.477 -0.459272C166.676 0.0234801 171.805 0.606754 177.057 0.997647C185.344 1.6147 193.729 2.02675 201.981 2.71142C202.468 2.75411 203.03 2.48613 203.231 2.11888C203.435 1.74798 203.2 1.41562 202.714 1.3753C194.457 0.687174 186.063 0.275302 177.768 -0.341561C172.534 -0.730461 167.418 -1.31289 162.232 -1.79474C159.496 -2.04914 150.526 -2.97292 144.118 -3.09906C141.181 -3.15803 138.735 -3.01697 137.537 -2.63796C137.206 -2.53025 136.577 -2.18911 136.728 -1.59835C136.923 -0.84273 139.609 2.40993 139.748 2.55833C141.727 4.65886 143.981 6.61832 146.073 8.65428C149.164 11.6603 157.259 18.6733 162.179 24.3179C163.95 26.3491 165.319 28.1902 165.845 29.5886Z" fill="#AAF27F"/>
<path d="M112.961 78.1479C110.828 80.3073 108.715 81.3099 105.674 81.3099C103.019 81.3099 99.2417 80.7885 97.167 82.9069C95.1086 85.0085 95.6213 88.8172 95.6213 91.4882C95.6213 94.5669 94.631 96.7068 92.4982 98.8663C88.9441 102.465 87.167 104.264 87.167 106.5C87.167 108.736 88.9441 110.535 92.4983 114.134C94.8875 116.553 95.6213 118.115 95.6213 121.512C95.6213 124.2 95.1064 128.024 97.1986 130.125C99.2743 132.209 103.036 131.69 105.674 131.69C108.912 131.69 110.471 132.331 112.782 134.671C114.75 136.664 117.388 140.25 120.5 140.25C123.613 140.25 126.251 136.664 128.218 134.671C130.529 132.331 132.089 131.69 135.327 131.69C137.965 131.69 141.726 132.209 143.802 130.125C145.894 128.024 145.379 124.2 145.379 121.512C145.379 118.115 146.113 116.553 148.502 114.134C152.057 110.535 153.834 108.736 153.834 106.5C153.834 104.264 152.057 102.465 148.502 98.8663C146.113 96.4471 145.379 94.8852 145.379 91.4882C145.379 88.8001 145.894 84.9757 143.802 82.875C141.727 80.7908 137.965 81.3099 135.327 81.3099C132.285 81.3099 130.172 80.3069 128.04 78.1479C124.486 74.5493 122.709 72.75 120.5 72.75C118.292 72.75 116.515 74.5493 112.961 78.1479Z" fill="#54D62C"/>
<path d="M128.04 78.1479C124.486 74.5493 122.709 72.75 120.5 72.75C118.292 72.75 116.515 74.5493 112.961 78.1479C110.828 80.3073 108.715 81.3099 105.674 81.3099C103.019 81.3099 99.2417 80.7885 97.167 82.9069C95.1086 85.0085 95.6213 88.8172 95.6213 91.4882C95.6213 94.5669 94.631 96.7068 92.4982 98.8663C88.9441 102.465 87.167 104.264 87.167 106.5C87.167 108.736 88.9441 110.535 92.4983 114.134C94.8875 116.553 95.6213 118.115 95.6213 121.512C95.6213 124.2 95.1064 128.024 97.1986 130.125C99.2743 132.209 103.036 131.69 105.674 131.69C108.912 131.69 110.471 132.331 112.782 134.671C114.75 136.664 117.388 140.25 120.5 140.25C123.613 140.25 126.251 136.664 128.218 134.671C130.529 132.331 132.089 131.69 135.327 131.69C137.965 131.69 141.726 132.209 143.802 130.125M148.502 98.8663C152.057 102.465 153.834 104.264 153.834 106.5C153.834 108.736 152.057 110.535 148.502 114.134C146.113 116.553 145.379 118.115 145.379 121.512C145.379 124.2 145.894 128.024 143.802 130.125M143.802 130.125H143.834" stroke="#101828" stroke-linecap="round" stroke-linejoin="round"/>
<path d="M107.167 100.788C107.167 100.788 114.667 99.75 120.5 113.25C120.5 113.25 137.363 79.5 153.834 72.75" stroke="#101828" stroke-linecap="round" stroke-linejoin="round"/>
</g>
<path d="M168.884 126.53C170.609 126.53 172.165 125.491 172.825 123.897C173.485 122.303 173.12 120.468 171.9 119.249C170.679 118.029 168.845 117.665 167.251 118.325C165.657 118.986 164.618 120.542 164.619 122.267C164.619 123.398 165.068 124.483 165.868 125.283C166.668 126.082 167.753 126.531 168.884 126.53Z" fill="#1890FF"/>
<path d="M101.466 65.5303C103.191 65.5303 104.747 64.491 105.407 62.897C106.067 61.3031 105.702 59.4685 104.482 58.2488C103.261 57.0291 101.427 56.6646 99.833 57.3252C98.2393 57.9859 97.2005 59.5416 97.2012 61.2668C97.2007 62.398 97.65 63.4829 98.45 64.2826C99.25 65.0823 100.335 65.5312 101.466 65.5303Z" fill="#54D62C"/>
<path d="M75.4205 147.782C79.7948 147.782 83.3409 144.236 83.3409 139.862C83.3409 135.488 79.7948 131.941 75.4205 131.941C71.0461 131.941 67.5 135.488 67.5 139.862C67.4979 141.963 68.3317 143.979 69.8175 145.465C71.3033 146.951 73.3192 147.784 75.4205 147.782Z" fill="#FF4842"/>
</svg>
