<svg width="32" height="32" viewBox="0 0 32 32" fill="none" xmlns="http://www.w3.org/2000/svg">
<path d="M22.668 14.4059C22.668 13.9451 22.668 13.7147 22.7374 13.5093C22.939 12.9126 23.4703 12.681 24.0028 12.4385C24.6013 12.1659 24.9006 12.0296 25.1971 12.0056C25.5337 11.9784 25.8709 12.0509 26.1586 12.2124C26.5401 12.4265 26.8061 12.8332 27.0785 13.164C28.3363 14.6918 28.9652 15.4557 29.1954 16.2981C29.3811 16.9779 29.3811 17.6888 29.1954 18.3686C28.8597 19.5972 27.7993 20.6271 27.0144 21.5805C26.6128 22.0682 26.4121 22.312 26.1586 22.4543C25.8709 22.6158 25.5337 22.6883 25.1971 22.6611C24.9006 22.6371 24.6013 22.5008 24.0028 22.2282C23.4703 21.9857 22.939 21.7541 22.7374 21.1574C22.668 20.952 22.668 20.7216 22.668 20.2607V14.4059Z" fill="#FFC107"/>
<path d="M9.33594 14.4062C9.33594 13.8258 9.31964 13.3043 8.85049 12.8963C8.67984 12.7479 8.45361 12.6448 8.00115 12.4387C7.40261 12.1661 7.10335 12.0298 6.80682 12.0058C5.91716 11.9339 5.4385 12.5411 4.92544 13.1642C3.6676 14.692 3.03869 15.4559 2.80856 16.2983C2.62284 16.9781 2.62284 17.689 2.80856 18.3688C3.14421 19.5975 4.20463 20.6274 4.98955 21.5807C5.48432 22.1817 5.95696 22.73 6.80682 22.6613C7.10335 22.6373 7.40261 22.501 8.00115 22.2284C8.45361 22.0223 8.67984 21.9192 8.85049 21.7708C9.31964 21.3628 9.33594 20.8413 9.33594 20.261V14.4062Z" fill="#FFC107"/>
<path d="M22.668 14.4059C22.668 13.9451 22.668 13.7147 22.7374 13.5093C22.939 12.9126 23.4703 12.681 24.0028 12.4385C24.6013 12.1659 24.9006 12.0296 25.1971 12.0056C25.5337 11.9784 25.8709 12.0509 26.1586 12.2124C26.5401 12.4265 26.8061 12.8332 27.0785 13.164C28.3363 14.6918 28.9652 15.4557 29.1954 16.2981C29.3811 16.9779 29.3811 17.6888 29.1954 18.3686C28.8597 19.5972 27.7993 20.6271 27.0144 21.5805C26.6128 22.0682 26.4121 22.312 26.1586 22.4543C25.8709 22.6158 25.5337 22.6883 25.1971 22.6611C24.9006 22.6371 24.6013 22.5008 24.0028 22.2282C23.4703 21.9857 22.939 21.7541 22.7374 21.1574C22.668 20.952 22.668 20.7216 22.668 20.2607V14.4059Z" stroke="#212529" stroke-width="1.5"/>
<path d="M9.33594 14.4062C9.33594 13.8258 9.31964 13.3043 8.85049 12.8963C8.67984 12.7479 8.45361 12.6448 8.00115 12.4387C7.40261 12.1661 7.10335 12.0298 6.80682 12.0058C5.91716 11.9339 5.4385 12.5411 4.92544 13.1642C3.6676 14.692 3.03869 15.4559 2.80856 16.2983C2.62284 16.9781 2.62284 17.689 2.80856 18.3688C3.14421 19.5975 4.20463 20.6274 4.98955 21.5807C5.48432 22.1817 5.95696 22.73 6.80682 22.6613C7.10335 22.6373 7.40261 22.501 8.00115 22.2284C8.45361 22.0223 8.67984 21.9192 8.85049 21.7708C9.31964 21.3628 9.33594 20.8413 9.33594 20.261V14.4062Z" stroke="#212529" stroke-width="1.5"/>
<path d="M6.66797 12C6.66797 7.58172 10.8466 4 16.0013 4C21.156 4 25.3346 7.58172 25.3346 12" stroke="#212529" stroke-width="1.5" stroke-linecap="square" stroke-linejoin="round"/>
<path d="M25.3359 22.668V23.7346C25.3359 26.0911 22.9481 28.0013 20.0026 28.0013H17.3359" stroke="#212529" stroke-width="1.5" stroke-linecap="round" stroke-linejoin="round"/>
</svg>
