<svg preserveAspectRatio="none" width="100%" height="100%" overflow="visible" style="display: block;" viewBox="0 0 25.5004 28.1667" fill="none" xmlns="http://www.w3.org/2000/svg">
<g id="elements">
<path id="Rectangle 2182" d="M6.42569 4.00716C6.15062 3.60678 5.7519 3.06333 6.57552 2.93939C7.42209 2.81201 8.30115 3.39152 9.1616 3.37961C9.94002 3.36884 10.3366 3.02359 10.7621 2.53064C11.2101 2.01157 11.9038 0.75 12.7502 0.75C13.5966 0.75 14.2903 2.01157 14.7383 2.53064C15.1638 3.02359 15.5604 3.36884 16.3388 3.37961C17.1992 3.39152 18.0783 2.81201 18.9249 2.93939C19.7485 3.06333 19.3498 3.60678 19.0747 4.00716L17.8309 5.81752C17.2989 6.59195 17.0328 6.97916 16.4761 7.19791C15.9194 7.41667 15.2 7.41667 13.7611 7.41667H11.7393C10.3004 7.41667 9.58099 7.41667 9.02427 7.19791C8.46755 6.97916 8.20153 6.59195 7.66947 5.81752L6.42569 4.00716Z" fill="var(--fill-0, white)"/>
<path id="Vector" d="M24.6738 20.5305C23.7987 15.2654 21.0744 11.3448 18.7061 9.042C18.017 8.3719 17.6724 8.03684 16.9112 7.72675C16.1501 7.41667 15.4958 7.41667 14.1872 7.41667H11.3132C10.0046 7.41667 9.35033 7.41667 8.58916 7.72675C7.82798 8.03684 7.48341 8.3719 6.79425 9.042C4.42595 11.3448 1.70167 15.2654 0.826554 20.5305C0.175437 24.4479 3.78923 27.4167 7.82796 27.4167H17.6724C21.7112 27.4167 25.325 24.4479 24.6738 20.5305Z" fill="var(--fill-0, #FFC107)" stroke="var(--stroke-0, #161C24)" stroke-width="1.5" stroke-linecap="round"/>
<path id="Vector_2" d="M24.6738 20.5305C23.7987 15.2654 21.0744 11.3448 18.7061 9.042C18.017 8.3719 17.6724 8.03684 16.9112 7.72675C16.1501 7.41667 15.4958 7.41667 14.1872 7.41667H11.3132C10.0046 7.41667 9.35033 7.41667 8.58916 7.72675C7.82798 8.03684 7.48341 8.3719 6.79425 9.042C4.42595 11.3448 1.70167 15.2654 0.826554 20.5305C0.175437 24.4479 3.78923 27.4167 7.82796 27.4167H17.6724C21.7112 27.4167 25.325 24.4479 24.6738 20.5305Z" stroke="var(--stroke-0, #161C24)" stroke-width="1.5" stroke-linecap="round"/>
<path id="Rectangle 2181" d="M6.42569 4.00716C6.15062 3.60678 5.7519 3.06333 6.57552 2.93939C7.42209 2.81201 8.30115 3.39152 9.1616 3.37961C9.94002 3.36884 10.3366 3.02359 10.7621 2.53064C11.2101 2.01157 11.9038 0.75 12.7502 0.75C13.5966 0.75 14.2903 2.01157 14.7383 2.53064C15.1638 3.02359 15.5604 3.36884 16.3388 3.37961C17.1992 3.39152 18.0783 2.81201 18.9249 2.93939C19.7485 3.06333 19.3498 3.60678 19.0747 4.00716L17.8309 5.81752C17.2989 6.59195 17.0328 6.97916 16.4761 7.19791C15.9194 7.41667 15.2 7.41667 13.7611 7.41667H11.7393C10.3004 7.41667 9.58099 7.41667 9.02427 7.19791C8.46755 6.97916 8.20153 6.59195 7.66947 5.81752L6.42569 4.00716Z" stroke="var(--stroke-0, #161C24)" stroke-width="1.5"/>
</g>
</svg>
