<svg preserveAspectRatio="none" width="100%" height="100%" overflow="visible" style="display: block;" viewBox="0 0 28.1667 21.5002" fill="none" xmlns="http://www.w3.org/2000/svg">
<g id="elements">
<path id="Vector" d="M0.75 10.0835H14.0833V18.0835H4.75H4.3648C2.7618 18.0835 2.74018 18.0769 1.4064 17.1878C0.895685 16.8473 0.75 16.6553 0.75 16.0366V10.0835Z" fill="var(--fill-0, #FFC107)"/>
<path id="Vector_2" d="M27.4167 13.4335V13.4335V13.4335C27.4167 11.8001 27.4167 10.9835 27.0965 10.2939C26.7622 9.57382 26.1598 9.12536 24.8931 8.20763C23.6349 7.29611 22.7401 6.27155 21.8877 4.86001C20.672 2.847 20.0642 1.84049 19.1526 1.29532C18.241 0.750155 17.1657 0.750155 15.0153 0.750155H14.0833V18.0835H18.0833H23.4167C25.3142 18.0835 26.1654 18.0835 26.7683 17.4336C26.7942 17.4057 26.8194 17.3771 26.844 17.3477C27.4167 16.6635 27.4167 15.5869 27.4167 13.4335Z" fill="var(--fill-0, #FFC107)"/>
<path id="Vector_3" d="M19.1529 1.29532C18.528 0.921581 17.8261 0.80406 16.7536 0.767105L17.7446 5.38987C18.317 8.06138 18.4099 10.0835 21.4585 10.0835H26.7503H26.9871C26.6343 9.47856 26.0324 9.03277 24.8934 8.20763C23.6352 7.29611 22.7405 6.27155 21.888 4.86001C20.6724 2.847 20.0645 1.84049 19.1529 1.29532Z" fill="var(--fill-0, white)"/>
<path id="Vector_4" d="M23.4167 18.0835C25.3142 18.0835 26.1654 18.0835 26.7683 17.4336C26.7942 17.4057 26.8194 17.3771 26.844 17.3477C27.4167 16.6635 27.4167 15.5869 27.4167 13.4335C27.4167 11.8002 27.4167 10.9835 27.0965 10.2939C26.7622 9.57382 26.1599 9.12536 24.8931 8.20763C23.6349 7.29611 22.7401 6.27155 21.8877 4.86001C20.672 2.847 20.0642 1.84049 19.1526 1.29532C18.241 0.750155 17.1657 0.750155 15.0153 0.750155H14.0833M10.0833 18.0835H18.0833" stroke="var(--stroke-0, #161C24)" stroke-width="1.5" stroke-linecap="round" stroke-linejoin="round"/>
<path id="Vector 6839" d="M16.75 0.750155L17.7442 5.38987C18.3167 8.06138 18.4096 10.0835 21.4581 10.0835H26.75" stroke="var(--stroke-0, #161C24)" stroke-width="1.5" stroke-linecap="round" stroke-linejoin="round"/>
<path id="Vector 6838" d="M27.4167 14.0835H26.0833" stroke="var(--stroke-0, #161C24)" stroke-width="1.5" stroke-linecap="round" stroke-linejoin="round"/>
<path id="Vector 6840" d="M14.0833 0.750155L14.0833 18.0835" stroke="var(--stroke-0, #161C24)" stroke-width="1.5" stroke-linecap="round" stroke-linejoin="round"/>
<path id="Vector_5" d="M14.0833 10.8335C14.4975 10.8335 14.8333 10.4977 14.8333 10.0835C14.8333 9.66928 14.4975 9.33349 14.0833 9.33349V10.0835V10.8335ZM0.75 10.0835V9.33349C0.335786 9.33349 0 9.66928 0 10.0835H0.75ZM1.4064 17.1878L0.990377 17.8118H0.990377L1.4064 17.1878ZM4.75 18.8335C5.16421 18.8335 5.5 18.4977 5.5 18.0835C5.5 17.6693 5.16421 17.3335 4.75 17.3335V18.0835V18.8335ZM14.0833 10.0835V9.33349H0.75V10.0835V10.8335H14.0833V10.0835ZM0.75 10.0835H0V16.0366H0.75H1.5V10.0835H0.75ZM4.3648 18.0835V18.8335H4.75V18.0835V17.3335H4.3648V18.0835ZM0.75 16.0366H0C0 16.3924 0.0384502 16.7589 0.242764 17.1011C0.436928 17.4262 0.729941 17.6382 0.990377 17.8118L1.4064 17.1878L1.82243 16.5637C1.57215 16.3969 1.53696 16.3426 1.5306 16.332C1.52978 16.3306 1.52851 16.3284 1.52662 16.3232C1.52457 16.3177 1.52079 16.306 1.51672 16.2853C1.50796 16.2406 1.5 16.1656 1.5 16.0366H0.75ZM1.4064 17.1878L0.990377 17.8118C1.62177 18.2327 2.06433 18.5346 2.56731 18.6869C3.07028 18.8392 3.60596 18.8335 4.3648 18.8335V18.0835V17.3335C3.52065 17.3335 3.24402 17.3245 3.00198 17.2512C2.75995 17.178 2.52481 17.032 1.82243 16.5637L1.4064 17.1878Z" fill="var(--stroke-0, #161C24)"/>
<circle id="Ellipse 1650" cx="20.75" cy="18.0835" r="2.66667" fill="var(--fill-0, white)"/>
<circle id="Ellipse 1647" cx="20.75" cy="18.0835" r="2.66667" stroke="var(--stroke-0, #161C24)" stroke-width="1.5"/>
<circle id="Ellipse 1649" cx="7.41667" cy="18.0835" r="2.66667" fill="var(--fill-0, white)"/>
<circle id="Ellipse 1648" cx="7.41667" cy="18.0835" r="2.66667" stroke="var(--stroke-0, #161C24)" stroke-width="1.5"/>
</g>
</svg>
